<?xml version="1.0" encoding="UTF-8"?>
<!DOCTYPE svg PUBLIC "-//W3C//DTD SVG 1.1//EN" "http://www.w3.org/Graphics/SVG/1.1/DTD/svg11.dtd">
<svg xmlns="http://www.w3.org/2000/svg" version="1.1" width="1280px" height="604px" style="shape-rendering:geometricPrecision; text-rendering:geometricPrecision; image-rendering:optimizeQuality; fill-rule:evenodd; clip-rule:evenodd" xmlns:xlink="http://www.w3.org/1999/xlink">
<g><path style="opacity:0.84" fill="#000000" d="M 317.5,3.5 C 521.834,3.33333 726.167,3.5 930.5,4C 1041.12,13.5149 1123.96,66.0149 1179,161.5C 1219.17,240.731 1224.51,322.398 1195,406.5C 1156.39,501.775 1087.56,563.275 988.5,591C 975.95,593.977 963.283,596.31 950.5,598C 736.184,599.656 521.851,599.989 307.5,599C 211.6,588.323 136.433,543.49 82,464.5C 28.341,375.56 20.341,282.56 58,185.5C 86.5066,120.995 131.673,71.8282 193.5,38C 232.704,18.3691 274.037,6.86907 317.5,3.5 Z M 333.5,19.5 C 527.167,19.3333 720.834,19.5 914.5,20C 1013.32,23.2279 1091.49,64.7279 1149,144.5C 1203.72,231.493 1211.39,322.493 1172,417.5C 1126.71,509.763 1053.21,564.263 951.5,581C 940.854,581.983 930.188,582.65 919.5,583C 722.5,583.667 525.5,583.667 328.5,583C 233.569,578.627 158.069,538.46 102,462.5C 47.1472,379.002 37.1472,290.335 72,196.5C 113.662,102.507 184.829,45.0066 285.5,24C 301.559,21.4526 317.559,19.9526 333.5,19.5 Z"/></g>
<g><path style="opacity:0.998" fill="#d31500" d="M 881.5,31.5 C 990.35,28.1672 1074.18,71.8339 1133,162.5C 1179.41,245.304 1183.74,330.304 1146,417.5C 1101.58,505.543 1030.41,557.043 932.5,572C 837.239,581.037 757.406,550.537 693,480.5C 637.913,414.508 617.247,338.842 631,253.5C 652.515,153.605 710.682,84.7712 805.5,47C 830.321,38.6697 855.654,33.503 881.5,31.5 Z"/></g>
<g><path style="opacity:0.999" fill="#e31d22" d="M 465.5,60.5 C 463.991,62.6803 464.491,64.347 467,65.5C 467.333,65.1667 467.667,64.8333 468,64.5C 473.152,67.9785 478.318,71.4785 483.5,75C 487.686,77.301 492.019,79.1343 496.5,80.5C 496.33,81.8221 496.663,82.9887 497.5,84C 500.127,85.3103 502.46,86.977 504.5,89C 506.652,90.4127 508.986,91.2461 511.5,91.5C 511.297,93.3904 511.963,94.8904 513.5,96C 515.921,98.0937 518.588,99.7604 521.5,101C 525.376,106.642 529.376,110.309 533.5,112C 535.5,114 537.5,116 539.5,118C 539.167,118.333 538.833,118.667 538.5,119C 541.867,122.703 545.534,126.036 549.5,129C 549.167,129.333 548.833,129.667 548.5,130C 551.372,132.537 553.872,135.37 556,138.5C 557.666,137.66 557.833,138.16 556.5,140C 557.96,141.582 559.627,142.915 561.5,144C 561.574,147.058 563.24,149.391 566.5,151C 566.167,151.333 565.833,151.667 565.5,152C 567.662,154.849 569.995,157.516 572.5,160C 571.655,161.558 572.321,162.558 574.5,163C 574.5,164 574.5,165 574.5,166C 575.328,166.915 576.328,167.581 577.5,168C 577.167,168.333 576.833,168.667 576.5,169C 578.254,171.836 580.254,174.502 582.5,177C 581.366,178.016 581.699,178.683 583.5,179C 582.366,180.016 582.699,180.683 584.5,181C 583.366,182.016 583.699,182.683 585.5,183C 584.366,184.016 584.699,184.683 586.5,185C 585.366,186.016 585.699,186.683 587.5,187C 587.5,188 587.5,189 587.5,190C 589.301,190.317 589.634,190.984 588.5,192C 590.749,197.166 593.416,202.499 596.5,208C 596.034,209.299 596.034,210.799 596.5,212.5C 599.598,212.413 599.932,212.913 597.5,214C 597.958,216.831 599.292,219.164 601.5,221C 601.5,222.667 601.5,224.333 601.5,226C 603.689,226.677 604.022,227.844 602.5,229.5C 603.025,230.192 603.692,230.692 604.5,231C 604.525,233.012 604.525,235.012 604.5,237C 604.905,237.945 605.572,238.612 606.5,239C 606.751,241.125 606.751,243.292 606.5,245.5C 607.299,247.915 608.299,250.415 609.5,253C 608.105,255.075 608.438,256.908 610.5,258.5C 610.167,259.167 609.833,259.833 609.5,260.5C 610.163,288.696 610.829,316.863 611.5,345C 610.833,345.333 610.167,345.667 609.5,346C 608.434,348.315 608.434,350.981 609.5,354C 608.458,356.251 607.458,358.418 606.5,360.5C 606.608,361.442 606.941,362.275 607.5,363C 606.572,363.388 605.905,364.055 605.5,365C 605.246,366.856 605.246,368.856 605.5,371C 603.408,371.953 603.075,373.286 604.5,375C 603.455,376.616 602.455,378.283 601.5,380C 604.131,381.691 603.797,382.858 600.5,383.5C 600.709,384.086 601.043,384.586 601.5,385C 600.562,386.063 599.562,387.23 598.5,388.5C 598.694,390.07 598.694,391.57 598.5,393C 596.083,394.144 595.416,395.81 596.5,398C 594.617,400.261 593.284,402.428 592.5,404.5C 593.902,405.842 593.569,406.676 591.5,407C 593.932,408.087 593.598,408.587 590.5,408.5C 589.333,412.486 587.666,416.319 585.5,420C 587.878,420.974 587.544,421.641 584.5,422C 586.878,422.974 586.544,423.641 583.5,424C 584.634,425.016 584.301,425.683 582.5,426C 583.634,427.016 583.301,427.683 581.5,428C 581.833,428.333 582.167,428.667 582.5,429C 580.697,430.262 579.364,431.929 578.5,434C 578.833,434.333 579.167,434.667 579.5,435C 576.951,435.751 575.284,437.418 574.5,440C 574.833,440.333 575.167,440.667 575.5,441C 573.096,441.508 572.429,442.675 573.5,444.5C 570.901,446.117 569.234,447.951 568.5,450C 568.833,450.333 569.167,450.667 569.5,451C 567.479,451.513 565.979,452.68 565,454.5C 564.383,455.449 564.549,456.282 565.5,457C 564.5,457.333 563.5,457.667 562.5,458C 552.921,472.442 539.587,487.109 522.5,502C 522.833,502.333 523.167,502.667 523.5,503C 519.218,505.362 515.884,508.028 513.5,511C 501.437,520.878 487.437,530.045 471.5,538.5C 470.016,540.074 468.349,541.407 466.5,542.5C 466.624,543.107 466.957,543.44 467.5,543.5C 424.903,565.31 379.57,574.81 331.5,572C 244.236,566.129 174.736,528.296 123,458.5C 84.5024,403.18 68.8358,341.847 76,274.5C 86.3367,189.623 126.837,123.457 197.5,76C 258.831,38.0685 325.164,25.4018 396.5,38C 420.487,42.6069 443.487,50.1069 465.5,60.5 Z"/></g>
<g><path style="opacity:1" fill="#fdf0f0" d="M 594.5,233.5 C 595.057,238.165 596.39,242.498 598.5,246.5C 600.672,255.701 602.005,265.035 602.5,274.5C 603.833,293.167 603.833,311.833 602.5,330.5C 594.696,398.405 565.029,454.572 513.5,499C 436.992,559.363 351.992,575.03 258.5,546C 169.246,511.412 113.412,447.578 91,354.5C 74.2481,252.25 105.081,167.75 183.5,101C 253.615,48.6441 331.282,33.3107 416.5,55C 496.538,79.9288 553.372,130.762 587,207.5C 589.813,216.103 592.313,224.77 594.5,233.5 Z"/></g>
<g><path style="opacity:1" fill="#e5282a" d="M 581.5,212.5 C 583.392,220.513 586.059,228.179 589.5,235.5C 592.835,246.506 595.169,257.839 596.5,269.5C 596.902,287.832 597.236,306.165 597.5,324.5C 593.541,363.208 581.708,399.208 562,432.5C 557.074,438.035 552.907,444.035 549.5,450.5C 545.874,453.095 543.208,456.428 541.5,460.5C 476.263,532.641 395.263,561.474 298.5,547C 225.48,531.775 168.98,492.941 129,430.5C 87.1182,356.663 82.1182,280.33 114,201.5C 155.142,117.056 222.308,67.8892 315.5,54C 418.143,45.7766 499.309,83.2766 559,166.5C 567.054,179.275 574.054,192.609 580,206.5C 580.813,208.436 581.313,210.436 581.5,212.5 Z"/></g>
<g><path style="opacity:1" fill="#fefefe" d="M 335.5,61.5 C 347.168,61.7964 358.835,62.1297 370.5,62.5C 409.965,66.1543 446.299,78.6543 479.5,100C 490.012,107.69 500.346,115.523 510.5,123.5C 514.167,127.833 518.167,131.833 522.5,135.5C 541.992,154.5 556.992,176.5 567.5,201.5C 567.5,202.833 567.5,204.167 567.5,205.5C 509.824,204.837 452.49,205.504 395.5,207.5C 394.833,208.5 394.167,209.5 393.5,210.5C 387.108,215.89 381.441,221.89 376.5,228.5C 371.77,232.227 367.77,236.56 364.5,241.5C 361.5,242.5 359.5,244.5 358.5,247.5C 354.521,250.812 350.854,254.479 347.5,258.5C 346.675,259.386 345.675,259.719 344.5,259.5C 327.5,242.167 310.5,224.833 293.5,207.5C 293.5,207.167 293.5,206.833 293.5,206.5C 237.001,205.667 180.335,205.167 123.5,205C 124.38,203.644 124.714,202.144 124.5,200.5C 152.025,142.975 195.358,102.308 254.5,78.5C 261.767,76.7444 268.767,74.4111 275.5,71.5C 283.24,68.8804 291.24,66.8804 299.5,65.5C 306.761,65.3865 313.761,64.3865 320.5,62.5C 325.305,61.5128 330.305,61.1795 335.5,61.5 Z"/></g>
<g><path style="opacity:1" fill="#f5b4b6" d="M 335.5,61.5 C 347.19,60.3956 358.857,60.7289 370.5,62.5C 358.835,62.1297 347.168,61.7964 335.5,61.5 Z"/></g>
<g><path style="opacity:1" fill="#f7bcbe" d="M 320.5,62.5 C 313.761,64.3865 306.761,65.3865 299.5,65.5C 306.251,63.6784 313.251,62.6784 320.5,62.5 Z"/></g>
<g><path style="opacity:1" fill="#f6b3b4" d="M 275.5,71.5 C 268.767,74.4111 261.767,76.7444 254.5,78.5C 261.085,75.1937 268.085,72.8604 275.5,71.5 Z"/></g>
<g><path style="opacity:1" fill="#fefdfd" d="M 918.5,90.5 C 923.269,91.889 928.269,92.5557 933.5,92.5C 1006.11,105.063 1039.94,148.063 1035,221.5C 1030.74,249.311 1020.07,274.311 1003,296.5C 990.379,312.79 977.379,328.79 964,344.5C 934.963,374.702 906.129,405.036 877.5,435.5C 875.521,436.812 873.855,438.479 872.5,440.5C 931.163,441.5 989.83,441.833 1048.5,441.5C 1048.5,463.167 1048.5,484.833 1048.5,506.5C 955.167,506.5 861.833,506.5 768.5,506.5C 768.18,487.424 768.513,468.424 769.5,449.5C 772.903,447.1 775.57,444.1 777.5,440.5C 779.833,437.5 782.5,434.833 785.5,432.5C 789.566,429.437 792.899,425.771 795.5,421.5C 796.5,419.833 797.833,418.5 799.5,417.5C 804.23,413.773 808.23,409.44 811.5,404.5C 812.5,402.833 813.833,401.5 815.5,400.5C 818.903,398.1 821.57,395.1 823.5,391.5C 825.833,388.5 828.5,385.833 831.5,383.5C 835.234,380.769 838.234,377.436 840.5,373.5C 847.132,365.201 854.465,357.534 862.5,350.5C 865.903,348.1 868.57,345.1 870.5,341.5C 891.948,319.557 912.114,296.557 931,272.5C 940.642,258.886 947.809,244.219 952.5,228.5C 953.268,227.737 953.768,226.737 954,225.5C 954.82,218.986 954.653,212.653 953.5,206.5C 949.244,169.987 928.578,153.32 891.5,156.5C 888.813,156.336 886.146,156.503 883.5,157C 882.584,157.278 881.918,157.778 881.5,158.5C 862.654,165.181 850.487,178.181 845,197.5C 842.715,203.638 841.548,209.972 841.5,216.5C 840.527,218.948 840.194,221.615 840.5,224.5C 813.833,224.5 787.167,224.5 760.5,224.5C 760.5,219.5 760.5,214.5 760.5,209.5C 761.248,204.515 761.915,199.515 762.5,194.5C 764.361,186.468 767.028,178.801 770.5,171.5C 772.915,168.66 774.248,165.327 774.5,161.5C 792.223,128.773 818.89,107.106 854.5,96.5C 857.152,96.5905 859.485,95.9238 861.5,94.5C 880.275,90.8924 899.275,89.5591 918.5,90.5 Z"/></g>
<g><path style="opacity:1" fill="#e77a6d" d="M 918.5,90.5 C 923.731,90.4443 928.731,91.111 933.5,92.5C 928.269,92.5557 923.269,91.889 918.5,90.5 Z"/></g>
<g><path style="opacity:1" fill="#efa197" d="M 861.5,94.5 C 859.485,95.9238 857.152,96.5905 854.5,96.5C 856.515,95.0762 858.848,94.4095 861.5,94.5 Z"/></g>
<g><path style="opacity:1" fill="#ed6566" d="M 510.5,123.5 C 515.5,126.5 519.5,130.5 522.5,135.5C 518.167,131.833 514.167,127.833 510.5,123.5 Z"/></g>
<g><path style="opacity:0.704" fill="#e2131a" d="M 465.5,60.5 C 546.634,102.049 595.8,167.715 613,257.5C 626.528,353.592 598.695,435.092 529.5,502C 510.671,518.581 490.004,532.414 467.5,543.5C 466.957,543.44 466.624,543.107 466.5,542.5C 468.349,541.407 470.016,540.074 471.5,538.5C 487.437,530.045 501.437,520.878 513.5,511C 515.884,508.028 519.218,505.362 523.5,503C 523.167,502.667 522.833,502.333 522.5,502C 539.587,487.109 552.921,472.442 562.5,458C 563.5,457.667 564.5,457.333 565.5,457C 564.549,456.282 564.383,455.449 565,454.5C 565.979,452.68 567.479,451.513 569.5,451C 569.167,450.667 568.833,450.333 568.5,450C 569.234,447.951 570.901,446.117 573.5,444.5C 572.429,442.675 573.096,441.508 575.5,441C 575.167,440.667 574.833,440.333 574.5,440C 575.284,437.418 576.951,435.751 579.5,435C 579.167,434.667 578.833,434.333 578.5,434C 579.364,431.929 580.697,430.262 582.5,429C 582.167,428.667 581.833,428.333 581.5,428C 583.301,427.683 583.634,427.016 582.5,426C 584.301,425.683 584.634,425.016 583.5,424C 586.544,423.641 586.878,422.974 584.5,422C 587.544,421.641 587.878,420.974 585.5,420C 587.666,416.319 589.333,412.486 590.5,408.5C 593.598,408.587 593.932,408.087 591.5,407C 593.569,406.676 593.902,405.842 592.5,404.5C 593.284,402.428 594.617,400.261 596.5,398C 595.416,395.81 596.083,394.144 598.5,393C 598.694,391.57 598.694,390.07 598.5,388.5C 599.562,387.23 600.562,386.063 601.5,385C 601.043,384.586 600.709,384.086 600.5,383.5C 603.797,382.858 604.131,381.691 601.5,380C 602.455,378.283 603.455,376.616 604.5,375C 603.075,373.286 603.408,371.953 605.5,371C 605.246,368.856 605.246,366.856 605.5,365C 605.905,364.055 606.572,363.388 607.5,363C 606.941,362.275 606.608,361.442 606.5,360.5C 607.458,358.418 608.458,356.251 609.5,354C 608.434,350.981 608.434,348.315 609.5,346C 610.167,345.667 610.833,345.333 611.5,345C 610.829,316.863 610.163,288.696 609.5,260.5C 609.833,259.833 610.167,259.167 610.5,258.5C 608.438,256.908 608.105,255.075 609.5,253C 608.299,250.415 607.299,247.915 606.5,245.5C 606.751,243.292 606.751,241.125 606.5,239C 605.572,238.612 604.905,237.945 604.5,237C 604.525,235.012 604.525,233.012 604.5,231C 603.692,230.692 603.025,230.192 602.5,229.5C 604.022,227.844 603.689,226.677 601.5,226C 601.5,224.333 601.5,222.667 601.5,221C 599.292,219.164 597.958,216.831 597.5,214C 599.932,212.913 599.598,212.413 596.5,212.5C 596.034,210.799 596.034,209.299 596.5,208C 593.416,202.499 590.749,197.166 588.5,192C 589.634,190.984 589.301,190.317 587.5,190C 587.5,189 587.5,188 587.5,187C 585.699,186.683 585.366,186.016 586.5,185C 584.699,184.683 584.366,184.016 585.5,183C 583.699,182.683 583.366,182.016 584.5,181C 582.699,180.683 582.366,180.016 583.5,179C 581.699,178.683 581.366,178.016 582.5,177C 580.254,174.502 578.254,171.836 576.5,169C 576.833,168.667 577.167,168.333 577.5,168C 576.328,167.581 575.328,166.915 574.5,166C 574.5,165 574.5,164 574.5,163C 572.321,162.558 571.655,161.558 572.5,160C 569.995,157.516 567.662,154.849 565.5,152C 565.833,151.667 566.167,151.333 566.5,151C 563.24,149.391 561.574,147.058 561.5,144C 559.627,142.915 557.96,141.582 556.5,140C 557.833,138.16 557.666,137.66 556,138.5C 553.872,135.37 551.372,132.537 548.5,130C 548.833,129.667 549.167,129.333 549.5,129C 545.534,126.036 541.867,122.703 538.5,119C 538.833,118.667 539.167,118.333 539.5,118C 537.5,116 535.5,114 533.5,112C 529.376,110.309 525.376,106.642 521.5,101C 518.588,99.7604 515.921,98.0937 513.5,96C 511.963,94.8904 511.297,93.3904 511.5,91.5C 508.986,91.2461 506.652,90.4127 504.5,89C 502.46,86.977 500.127,85.3103 497.5,84C 496.663,82.9887 496.33,81.8221 496.5,80.5C 492.019,79.1343 487.686,77.301 483.5,75C 478.318,71.4785 473.152,67.9785 468,64.5C 467.667,64.8333 467.333,65.1667 467,65.5C 464.491,64.347 463.991,62.6803 465.5,60.5 Z"/></g>
<g><path style="opacity:1" fill="#ea877a" d="M 891.5,156.5 C 888.373,157.581 885.04,158.247 881.5,158.5C 881.918,157.778 882.584,157.278 883.5,157C 886.146,156.503 888.813,156.336 891.5,156.5 Z"/></g>
<g><path style="opacity:1" fill="#f2aba2" d="M 774.5,161.5 C 774.248,165.327 772.915,168.66 770.5,171.5C 770.752,167.673 772.085,164.34 774.5,161.5 Z"/></g>
<g><path style="opacity:1" fill="#e15d4c" d="M 762.5,194.5 C 761.915,199.515 761.248,204.515 760.5,209.5C 760.167,209.5 759.833,209.5 759.5,209.5C 759.549,204.184 760.549,199.184 762.5,194.5 Z"/></g>
<g><path style="opacity:1" fill="#fadbdc" d="M 124.5,200.5 C 124.714,202.144 124.38,203.644 123.5,205C 180.335,205.167 237.001,205.667 293.5,206.5C 236.157,207.163 179.157,206.496 122.5,204.5C 122.66,202.847 123.326,201.514 124.5,200.5 Z"/></g>
<g><path style="opacity:1" fill="#f9dbdc" d="M 567.5,201.5 C 568.167,202.167 568.833,202.833 569.5,203.5C 569.5,204.5 569.5,205.5 569.5,206.5C 511.664,206.168 453.998,206.501 396.5,207.5C 396.167,207.5 395.833,207.5 395.5,207.5C 452.49,205.504 509.824,204.837 567.5,205.5C 567.5,204.167 567.5,202.833 567.5,201.5 Z"/></g>
<g><path style="opacity:1" fill="#ec656a" d="M 122.5,204.5 C 179.157,206.496 236.157,207.163 293.5,206.5C 293.5,206.833 293.5,207.167 293.5,207.5C 236.5,207.5 179.5,207.5 122.5,207.5C 122.5,257.167 122.5,306.833 122.5,356.5C 122.167,356.5 121.833,356.5 121.5,356.5C 121.5,306.833 121.5,257.167 121.5,207.5C 121.263,206.209 121.596,205.209 122.5,204.5 Z"/></g>
<g><path style="opacity:1" fill="#e41d23" d="M 293.5,207.5 C 310.5,224.833 327.5,242.167 344.5,259.5C 345.708,260.782 347.042,260.782 348.5,259.5C 352.256,255.753 355.59,251.753 358.5,247.5C 360.833,245.833 362.833,243.833 364.5,241.5C 369.23,237.773 373.23,233.44 376.5,228.5C 382.892,223.11 388.559,217.11 393.5,210.5C 394.167,209.5 394.833,208.5 395.5,207.5C 395.833,207.5 396.167,207.5 396.5,207.5C 454.167,207.5 511.833,207.5 569.5,207.5C 569.5,270.167 569.5,332.833 569.5,395.5C 516.167,396.167 462.833,396.833 409.5,397.5C 397.869,409.632 386.035,421.632 374,433.5C 373.536,434.094 373.369,434.761 373.5,435.5C 370.833,436.167 369.167,437.833 368.5,440.5C 361.107,447.73 353.607,454.73 346,461.5C 331.727,448.394 317.893,434.727 304.5,420.5C 303.089,418.086 301.089,416.419 298.5,415.5C 292.5,409.833 286.5,404.167 280.5,398.5C 280.5,398.167 280.5,397.833 280.5,397.5C 228.336,396.501 176.003,396.168 123.5,396.5C 123.828,384.988 123.495,373.654 122.5,362.5C 122.5,360.5 122.5,358.5 122.5,356.5C 122.5,306.833 122.5,257.167 122.5,207.5C 179.5,207.5 236.5,207.5 293.5,207.5 Z"/></g>
<g><path style="opacity:1" fill="#eb6468" d="M 569.5,203.5 C 571.293,205.426 572.293,207.759 572.5,210.5C 571.167,240.659 570.5,271.159 570.5,302C 570.833,332.5 571.167,363 571.5,393.5C 572.298,393.043 572.631,392.376 572.5,391.5C 572.5,390.833 572.833,390.5 573.5,390.5C 573.817,393.546 572.484,395.213 569.5,395.5C 569.5,332.833 569.5,270.167 569.5,207.5C 511.833,207.5 454.167,207.5 396.5,207.5C 453.998,206.501 511.664,206.168 569.5,206.5C 569.5,205.5 569.5,204.5 569.5,203.5 Z"/></g>
<g><path style="opacity:1" fill="#fefafa" d="M 121.5,207.5 C 121.5,257.167 121.5,306.833 121.5,356.5C 121.829,369.011 121.495,381.345 120.5,393.5C 113.128,377.702 108.128,361.035 105.5,343.5C 105.55,334.904 104.55,326.571 102.5,318.5C 101.167,307.5 101.167,296.5 102.5,285.5C 104.016,277.366 105.016,269.033 105.5,260.5C 108.219,241.935 113.553,224.269 121.5,207.5 Z"/></g>
<g><path style="opacity:1" fill="#f6c7c9" d="M 572.5,210.5 C 572.5,211.167 572.5,211.833 572.5,212.5C 571.167,272.167 571.167,331.833 572.5,391.5C 572.631,392.376 572.298,393.043 571.5,393.5C 571.167,363 570.833,332.5 570.5,302C 570.5,271.159 571.167,240.659 572.5,210.5 Z"/></g>
<g><path style="opacity:1" fill="#fefbfb" d="M 572.5,212.5 C 573.537,213.93 574.204,215.597 574.5,217.5C 575.922,223.767 577.922,229.767 580.5,235.5C 582.211,239.637 583.544,243.971 584.5,248.5C 584.198,252.79 584.864,256.79 586.5,260.5C 588.033,283.137 588.699,305.803 588.5,328.5C 587.542,333.658 586.875,338.991 586.5,344.5C 583.716,360.308 579.382,375.641 573.5,390.5C 572.833,390.5 572.5,390.833 572.5,391.5C 571.167,331.833 571.167,272.167 572.5,212.5 Z"/></g>
<g><path style="opacity:1" fill="#ec5f60" d="M 581.5,212.5 C 585.336,219.67 588.002,227.337 589.5,235.5C 586.059,228.179 583.392,220.513 581.5,212.5 Z"/></g>
<g><path style="opacity:1" fill="#f3a4a7" d="M 558.5,385.5 C 558.167,385.5 557.833,385.5 557.5,385.5C 557.5,330.167 557.5,274.833 557.5,219.5C 504.499,219.333 451.499,219.5 398.5,220C 397.627,221.045 396.627,221.878 395.5,222.5C 395.511,220.983 396.177,219.816 397.5,219C 451.166,218.5 504.832,218.333 558.5,218.5C 558.5,274.167 558.5,329.833 558.5,385.5 Z"/></g>
<g><path style="opacity:1" fill="#f5abad" d="M 291.5,219.5 C 239.167,219.5 186.833,219.5 134.5,219.5C 134.5,274.833 134.5,330.167 134.5,385.5C 186.003,385.168 237.336,385.501 288.5,386.5C 236.833,386.5 185.167,386.5 133.5,386.5C 133.5,330.5 133.5,274.5 133.5,218.5C 186.336,218.168 239.003,218.501 291.5,219.5 Z"/></g>
<g><path style="opacity:1" fill="#fef9f9" d="M 291.5,219.5 C 309.715,236.881 327.381,254.714 344.5,273C 346.066,273.3 347.399,272.8 348.5,271.5C 361.985,257.909 375.485,244.242 389,230.5C 389.464,229.906 389.631,229.239 389.5,228.5C 390.95,226.077 392.95,224.077 395.5,222.5C 396.627,221.878 397.627,221.045 398.5,220C 451.499,219.5 504.499,219.333 557.5,219.5C 557.5,274.833 557.5,330.167 557.5,385.5C 505.156,384.838 453.156,385.504 401.5,387.5C 383.368,405.132 365.368,422.965 347.5,441C 346.167,441.667 344.833,441.667 343.5,441C 325.299,422.632 306.965,404.465 288.5,386.5C 237.336,385.501 186.003,385.168 134.5,385.5C 134.5,330.167 134.5,274.833 134.5,219.5C 186.833,219.5 239.167,219.5 291.5,219.5 Z"/></g>
<g><path style="opacity:1" fill="#f5b1b3" d="M 574.5,217.5 C 577.473,223.085 579.473,229.085 580.5,235.5C 577.922,229.767 575.922,223.767 574.5,217.5 Z"/></g>
<g><path style="opacity:1" fill="#f0b0a9" d="M 759.5,209.5 C 759.833,209.5 760.167,209.5 760.5,209.5C 760.5,214.5 760.5,219.5 760.5,224.5C 787.167,224.5 813.833,224.5 840.5,224.5C 840.194,221.615 840.527,218.948 841.5,216.5C 841.5,219.5 841.5,222.5 841.5,225.5C 814.167,225.5 786.833,225.5 759.5,225.5C 759.5,220.167 759.5,214.833 759.5,209.5 Z"/></g>
<g><path style="opacity:1" fill="#ee6e6f" d="M 393.5,210.5 C 388.559,217.11 382.892,223.11 376.5,228.5C 381.441,221.89 387.108,215.89 393.5,210.5 Z"/></g>
<g><path style="opacity:1" fill="#f1b2ab" d="M 953.5,206.5 C 954.653,212.653 954.82,218.986 954,225.5C 953.768,226.737 953.268,227.737 952.5,228.5C 953.35,221.201 953.683,213.868 953.5,206.5 Z"/></g>
<g><path style="opacity:1" fill="#f3a2a4" d="M 543.5,233.5 C 496.997,233.168 450.664,233.501 404.5,234.5C 402.5,237.167 400.167,239.5 397.5,241.5C 399.066,238.588 401.066,235.921 403.5,233.5C 450.332,232.169 496.998,232.169 543.5,233.5 Z"/></g>
<g><path style="opacity:1" fill="#e63f45" d="M 285.5,234.5 C 240.167,234.5 194.833,234.5 149.5,234.5C 149.5,279.833 149.5,325.167 149.5,370.5C 149.167,370.5 148.833,370.5 148.5,370.5C 148.5,324.833 148.5,279.167 148.5,233.5C 194.336,233.168 240.003,233.501 285.5,234.5 Z"/></g>
<g><path style="opacity:1" fill="#e31820" d="M 285.5,234.5 C 305.299,253.798 324.965,273.298 344.5,293C 345.928,293.579 347.262,293.412 348.5,292.5C 350.5,291.167 352.167,289.5 353.5,287.5C 353.5,286.833 353.833,286.5 354.5,286.5C 360.227,281.776 365.227,276.442 369.5,270.5C 377.556,263.445 384.89,255.779 391.5,247.5C 393.167,245.167 395.167,243.167 397.5,241.5C 400.167,239.5 402.5,237.167 404.5,234.5C 450.5,234.5 496.5,234.5 542.5,234.5C 542.5,279.833 542.5,325.167 542.5,370.5C 497.833,370.5 453.167,370.5 408.5,370.5C 408.5,365.5 408.5,360.5 408.5,355.5C 407.209,355.263 406.209,355.596 405.5,356.5C 387.833,373.5 370.5,390.833 353.5,408.5C 350.586,409.907 348.086,411.907 346,414.5C 325.037,395.371 304.537,375.704 284.5,355.5C 284.44,354.957 284.107,354.624 283.5,354.5C 282.505,359.792 282.172,365.125 282.5,370.5C 238.167,370.5 193.833,370.5 149.5,370.5C 149.5,325.167 149.5,279.833 149.5,234.5C 194.833,234.5 240.167,234.5 285.5,234.5 Z"/></g>
<g><path style="opacity:1" fill="#eb5c5e" d="M 404.5,234.5 C 450.664,233.501 496.997,233.168 543.5,233.5C 544.499,279.33 544.832,325.33 544.5,371.5C 498.833,371.5 453.167,371.5 407.5,371.5C 408.108,366.056 407.442,361.056 405.5,356.5C 406.209,355.596 407.209,355.263 408.5,355.5C 408.5,360.5 408.5,365.5 408.5,370.5C 453.167,370.5 497.833,370.5 542.5,370.5C 542.5,325.167 542.5,279.833 542.5,234.5C 496.5,234.5 450.5,234.5 404.5,234.5 Z"/></g>
<g><path style="opacity:1" fill="#eb5c5e" d="M 376.5,228.5 C 373.23,233.44 369.23,237.773 364.5,241.5C 367.77,236.56 371.77,232.227 376.5,228.5 Z"/></g>
<g><path style="opacity:1" fill="#f5abac" d="M 389.5,228.5 C 389.631,229.239 389.464,229.906 389,230.5C 375.485,244.242 361.985,257.909 348.5,271.5C 361.078,256.252 374.745,241.919 389.5,228.5 Z"/></g>
<g><path style="opacity:1" fill="#f08083" d="M 364.5,241.5 C 362.833,243.833 360.833,245.833 358.5,247.5C 359.5,244.5 361.5,242.5 364.5,241.5 Z"/></g>
<g><path style="opacity:1" fill="#f39d9f" d="M 594.5,233.5 C 596.61,237.502 597.943,241.835 598.5,246.5C 596.39,242.498 595.057,238.165 594.5,233.5 Z"/></g>
<g><path style="opacity:1" fill="#f49c9d" d="M 584.5,248.5 C 586.136,252.21 586.802,256.21 586.5,260.5C 584.864,256.79 584.198,252.79 584.5,248.5 Z"/></g>
<g><path style="opacity:1" fill="#ed6465" d="M 358.5,247.5 C 355.59,251.753 352.256,255.753 348.5,259.5C 347.042,260.782 345.708,260.782 344.5,259.5C 345.675,259.719 346.675,259.386 347.5,258.5C 350.854,254.479 354.521,250.812 358.5,247.5 Z"/></g>
<g><path style="opacity:1" fill="#ee6f71" d="M 391.5,247.5 C 384.89,255.779 377.556,263.445 369.5,270.5C 376.11,262.221 383.444,254.555 391.5,247.5 Z"/></g>
<g><path style="opacity:1" fill="#f7c2c3" d="M 105.5,260.5 C 105.016,269.033 104.016,277.366 102.5,285.5C 102.45,276.904 103.45,268.571 105.5,260.5 Z"/></g>
<g><path style="opacity:1" fill="#ed6566" d="M 369.5,270.5 C 365.227,276.442 360.227,281.776 354.5,286.5C 358.773,280.558 363.773,275.224 369.5,270.5 Z"/></g>
<g><path style="opacity:1" fill="#f7c4c6" d="M 602.5,274.5 C 605.167,293.167 605.167,311.833 602.5,330.5C 603.833,311.833 603.833,293.167 602.5,274.5 Z"/></g>
<g><path style="opacity:1" fill="#ef7a7b" d="M 353.5,287.5 C 352.167,289.5 350.5,291.167 348.5,292.5C 349.167,289.833 350.833,288.167 353.5,287.5 Z"/></g>
<g><path style="opacity:1" fill="#f8c6c7" d="M 586.5,260.5 C 590.852,283.068 591.519,305.735 588.5,328.5C 588.699,305.803 588.033,283.137 586.5,260.5 Z"/></g>
<g><path style="opacity:1" fill="#eb575a" d="M 596.5,269.5 C 598.038,279.954 598.705,290.621 598.5,301.5C 598.5,309.341 598.166,317.007 597.5,324.5C 597.236,306.165 596.902,287.832 596.5,269.5 Z"/></g>
<g><path style="opacity:1" fill="#f9c8c9" d="M 102.5,318.5 C 104.55,326.571 105.55,334.904 105.5,343.5C 103.45,335.429 102.45,327.096 102.5,318.5 Z"/></g>
<g><path style="opacity:1" fill="#ef797b" d="M 588.5,328.5 C 588.927,334.114 588.26,339.447 586.5,344.5C 586.875,338.991 587.542,333.658 588.5,328.5 Z"/></g>
<g><path style="opacity:1" fill="#f2afa7" d="M 870.5,341.5 C 868.57,345.1 865.903,348.1 862.5,350.5C 864.43,346.9 867.097,343.9 870.5,341.5 Z"/></g>
<g><path style="opacity:1" fill="#f6b3b5" d="M 405.5,356.5 C 407.442,361.056 408.108,366.056 407.5,371.5C 406.674,367.018 406.174,362.351 406,357.5C 388.915,375.087 371.415,392.087 353.5,408.5C 370.5,390.833 387.833,373.5 405.5,356.5 Z"/></g>
<g><path style="opacity:1" fill="#eb5a5f" d="M 284.5,355.5 C 283.512,360.64 283.179,365.974 283.5,371.5C 238.33,371.832 193.33,371.499 148.5,370.5C 148.833,370.5 149.167,370.5 149.5,370.5C 193.833,370.5 238.167,370.5 282.5,370.5C 282.172,365.125 282.505,359.792 283.5,354.5C 284.107,354.624 284.44,354.957 284.5,355.5 Z"/></g>
<g><path style="opacity:1" fill="#f1afa6" d="M 840.5,373.5 C 838.234,377.436 835.234,380.769 831.5,383.5C 833.766,379.564 836.766,376.231 840.5,373.5 Z"/></g>
<g><path style="opacity:1" fill="#ee7a7f" d="M 557.5,385.5 C 557.833,385.5 558.167,385.5 558.5,385.5C 506.264,386.171 453.931,386.838 401.5,387.5C 453.156,385.504 505.156,384.838 557.5,385.5 Z"/></g>
<g><path style="opacity:1" fill="#e63238" d="M 122.5,362.5 C 123.495,373.654 123.828,384.988 123.5,396.5C 176.003,396.168 228.336,396.501 280.5,397.5C 227.833,397.5 175.167,397.5 122.5,397.5C 122.5,385.833 122.5,374.167 122.5,362.5 Z"/></g>
<g><path style="opacity:1" fill="#f5b1b3" d="M 121.5,356.5 C 121.833,356.5 122.167,356.5 122.5,356.5C 122.5,358.5 122.5,360.5 122.5,362.5C 122.5,374.167 122.5,385.833 122.5,397.5C 175.167,397.5 227.833,397.5 280.5,397.5C 280.5,397.833 280.5,398.167 280.5,398.5C 227.833,398.5 175.167,398.5 122.5,398.5C 121.069,397.22 120.402,395.553 120.5,393.5C 121.495,381.345 121.829,369.011 121.5,356.5 Z"/></g>
<g><path style="opacity:1" fill="#f5aeb0" d="M 409.5,397.5 C 462.833,397.5 516.167,397.5 569.5,397.5C 569.737,398.791 569.404,399.791 568.5,400.5C 542.509,399.167 516.175,398.5 489.5,398.5C 463.167,398.667 436.833,398.833 410.5,399C 398.298,411.369 385.965,423.535 373.5,435.5C 373.369,434.761 373.536,434.094 374,433.5C 386.035,421.632 397.869,409.632 409.5,397.5 Z"/></g>
<g><path style="opacity:1" fill="#fefefe" d="M 122.5,398.5 C 175.167,398.5 227.833,398.5 280.5,398.5C 286.5,404.167 292.5,409.833 298.5,415.5C 299.911,417.914 301.911,419.581 304.5,420.5C 317.893,434.727 331.727,448.394 346,461.5C 353.607,454.73 361.107,447.73 368.5,440.5C 370.5,439.167 372.167,437.5 373.5,435.5C 385.965,423.535 398.298,411.369 410.5,399C 436.833,398.833 463.167,398.667 489.5,398.5C 516.175,398.5 542.509,399.167 568.5,400.5C 564.205,410.423 559.372,420.089 554,429.5C 546.032,440.304 537.865,450.97 529.5,461.5C 523.833,466.5 518.5,471.833 513.5,477.5C 449.426,533.19 375.426,553.023 291.5,537C 212.978,517.622 156.645,471.455 122.5,398.5 Z"/></g>
<g><path style="opacity:1" fill="#f1ada4" d="M 823.5,391.5 C 821.57,395.1 818.903,398.1 815.5,400.5C 817.43,396.9 820.097,393.9 823.5,391.5 Z"/></g>
<g><path style="opacity:1" fill="#f2b6ae" d="M 811.5,404.5 C 808.23,409.44 804.23,413.773 799.5,417.5C 802.77,412.56 806.77,408.227 811.5,404.5 Z"/></g>
<g><path style="opacity:1" fill="#ef7576" d="M 298.5,415.5 C 301.089,416.419 303.089,418.086 304.5,420.5C 301.911,419.581 299.911,417.914 298.5,415.5 Z"/></g>
<g><path style="opacity:1" fill="#f2b5ad" d="M 795.5,421.5 C 792.899,425.771 789.566,429.437 785.5,432.5C 788.101,428.229 791.434,424.563 795.5,421.5 Z"/></g>
<g><path style="opacity:1" fill="#f4a1a2" d="M 373.5,435.5 C 372.167,437.5 370.5,439.167 368.5,440.5C 369.167,437.833 370.833,436.167 373.5,435.5 Z"/></g>
<g><path style="opacity:1" fill="#ed9c94" d="M 877.5,435.5 C 877.141,437.371 876.141,438.871 874.5,440C 932.832,440.5 991.166,440.667 1049.5,440.5C 1049.83,462.673 1049.5,484.673 1048.5,506.5C 1048.5,484.833 1048.5,463.167 1048.5,441.5C 989.83,441.833 931.163,441.5 872.5,440.5C 873.855,438.479 875.521,436.812 877.5,435.5 Z"/></g>
<g><path style="opacity:1" fill="#f0a59c" d="M 777.5,440.5 C 775.57,444.1 772.903,447.1 769.5,449.5C 771.43,445.9 774.097,442.9 777.5,440.5 Z"/></g>
<g><path style="opacity:1" fill="#eeaaa2" d="M 769.5,449.5 C 768.513,468.424 768.18,487.424 768.5,506.5C 767.834,497.173 767.5,487.673 767.5,478C 767.502,468.142 768.168,458.642 769.5,449.5 Z"/></g>
<g><path style="opacity:1" fill="#f5a7a9" d="M 549.5,450.5 C 547.312,454.207 544.645,457.54 541.5,460.5C 543.208,456.428 545.874,453.095 549.5,450.5 Z"/></g>
<g><path style="opacity:1" fill="#eb5a5b" d="M 529.5,461.5 C 525.167,467.833 519.833,473.167 513.5,477.5C 518.5,471.833 523.833,466.5 529.5,461.5 Z"/></g>
</svg>
