<?xml version="1.0" encoding="UTF-8"?>
<!DOCTYPE svg PUBLIC "-//W3C//DTD SVG 1.1//EN" "http://www.w3.org/Graphics/SVG/1.1/DTD/svg11.dtd">
<svg xmlns="http://www.w3.org/2000/svg" version="1.1" width="1280px" height="607px" style="shape-rendering:geometricPrecision; text-rendering:geometricPrecision; image-rendering:optimizeQuality; fill-rule:evenodd; clip-rule:evenodd" xmlns:xlink="http://www.w3.org/1999/xlink">
<g><path style="opacity:0.848" fill="#000000" d="M 317.5,4.5 C 521.834,4.33333 726.167,4.5 930.5,5C 1034.83,13.8931 1115.33,62.0597 1172,149.5C 1222.41,238.294 1228.08,329.961 1189,424.5C 1143.39,518.768 1069.23,576.268 966.5,597C 958.527,598.218 950.527,599.218 942.5,600C 730.167,600.667 517.833,600.667 305.5,600C 202.728,587.901 124.895,537.734 72,449.5C 43.4736,398.541 31.1402,343.874 35,285.5C 43.038,185.568 88.538,107.735 171.5,52C 216.364,24.2114 265.031,8.37805 317.5,4.5 Z M 333.5,20.5 C 527.5,20.3333 721.5,20.5 915.5,21C 1006.57,23.785 1080.73,60.285 1138,130.5C 1198.87,213.903 1212.54,304.57 1179,402.5C 1142.82,491.994 1078.32,549.827 985.5,576C 963.264,582.225 940.597,585.225 917.5,585C 721.833,585.667 526.167,585.667 330.5,585C 236.688,581.35 161.521,542.516 105,468.5C 49.256,387.007 37.256,299.341 69,205.5C 109.261,107.112 181.428,46.9458 285.5,25C 301.559,22.4526 317.559,20.9526 333.5,20.5 Z"/></g>
<g><path style="opacity:0.999" fill="#1b58db" d="M 881.5,32.5 C 971.851,28.9461 1047.02,60.6127 1107,127.5C 1168.76,204.656 1186.1,290.99 1159,386.5C 1130.48,468.016 1076.32,525.182 996.5,558C 914.759,586.482 836.093,579.816 760.5,538C 688.025,492.465 644.525,427.298 630,342.5C 618.821,236.071 654.987,149.904 738.5,84C 781.181,53.2707 828.847,36.1041 881.5,32.5 Z"/></g>
<g><path style="opacity:0.998" fill="#e41b21" d="M 319.5,35.5 C 412.876,29.4325 490.709,60.7658 553,129.5C 610.948,200.651 629.614,281.317 609,371.5C 587.601,447.894 542.101,505.06 472.5,543C 403.997,577.413 332.997,583.413 259.5,561C 184.397,534.232 129.897,484.732 96,412.5C 63.7813,333.624 66.448,255.957 104,179.5C 151.294,95.0805 223.127,47.0805 319.5,35.5 Z"/></g>
<g><path style="opacity:1" fill="#fdf2f2" d="M 326.5,46.5 C 422.013,43.2534 498.846,79.2534 557,154.5C 606.746,228.792 617.413,308.458 589,393.5C 559.707,467.46 507.873,518.626 433.5,547C 338.801,577.665 252.801,561.998 175.5,500C 105.975,436.786 77.1418,358.286 89,264.5C 103.74,183.43 146.24,121.93 216.5,80C 250.866,60.8189 287.533,49.6522 326.5,46.5 Z"/></g>
<g><path style="opacity:1" fill="#e5272a" d="M 94.5,327.5 C 94.2406,316.164 93.9072,304.831 93.5,293.5C 97.9829,213.689 131.983,149.856 195.5,102C 273.292,48.9186 356.292,39.2519 444.5,73C 533.805,113.678 584.971,182.845 598,280.5C 602.875,386.269 560.375,466.436 470.5,521C 386.638,564.503 302.971,564.17 219.5,520C 146.611,476.247 104.945,412.08 94.5,327.5 Z"/></g>
<g><path style="opacity:1" fill="#fefefe" d="M 569.5,206.5 C 511.833,207.167 454.167,207.833 396.5,208.5C 395.167,209.167 394.167,210.167 393.5,211.5C 389.434,214.563 386.101,218.229 383.5,222.5C 381.5,223.833 379.833,225.5 378.5,227.5C 374.434,230.563 371.101,234.229 368.5,238.5C 365.833,240.5 363.5,242.833 361.5,245.5C 357.434,248.563 354.101,252.229 351.5,256.5C 349.516,257.983 347.683,259.649 346,261.5C 328.365,244.031 310.865,226.365 293.5,208.5C 236.999,207.833 180.332,207.167 123.5,206.5C 124.309,204.929 124.643,203.262 124.5,201.5C 150.798,146.704 191.798,106.871 247.5,82C 250.748,80.5405 254.081,79.3738 257.5,78.5C 263.767,77.0778 269.767,75.0778 275.5,72.5C 349.018,51.5504 418.018,61.7171 482.5,103C 521.848,128.844 550.848,163.344 569.5,206.5 Z"/></g>
<g><path style="opacity:1" fill="#f6b0b1" d="M 275.5,72.5 C 269.767,75.0778 263.767,77.0778 257.5,78.5C 263.085,75.5271 269.085,73.5271 275.5,72.5 Z"/></g>
<g><path style="opacity:1" fill="#fefefe" d="M 955.5,97.5 C 958.5,97.5 961.5,97.5 964.5,97.5C 964.5,234.167 964.5,370.833 964.5,507.5C 938.167,507.5 911.833,507.5 885.5,507.5C 885.5,402.833 885.5,298.167 885.5,193.5C 883.901,193.232 882.568,193.566 881.5,194.5C 850.803,203.839 820.137,213.173 789.5,222.5C 787.511,201.192 786.844,179.526 787.5,157.5C 843.35,137.326 899.35,117.326 955.5,97.5 Z"/></g>
<g><path style="opacity:1" fill="#b7c8f3" d="M 955.5,97.5 C 958.962,96.5184 962.629,96.185 966.5,96.5C 966.5,233.833 966.5,371.167 966.5,508.5C 938.833,508.5 911.167,508.5 883.5,508.5C 884.165,403.495 883.498,298.828 881.5,194.5C 882.568,193.566 883.901,193.232 885.5,193.5C 885.5,298.167 885.5,402.833 885.5,507.5C 911.833,507.5 938.167,507.5 964.5,507.5C 964.5,370.833 964.5,234.167 964.5,97.5C 961.5,97.5 958.5,97.5 955.5,97.5 Z"/></g>
<g><path style="opacity:1" fill="#8eacec" d="M 787.5,157.5 C 786.844,179.526 787.511,201.192 789.5,222.5C 788.791,223.404 787.791,223.737 786.5,223.5C 786.169,201.327 786.503,179.327 787.5,157.5 Z"/></g>
<g><path style="opacity:1" fill="#f29396" d="M 124.5,201.5 C 124.643,203.262 124.309,204.929 123.5,206.5C 180.332,207.167 236.999,207.833 293.5,208.5C 236.5,208.5 179.5,208.5 122.5,208.5C 122.167,208.5 121.833,208.5 121.5,208.5C 121.935,205.843 122.935,203.509 124.5,201.5 Z"/></g>
<g><path style="opacity:1" fill="#f19094" d="M 569.5,206.5 C 570.338,206.842 570.672,207.508 570.5,208.5C 570.167,208.5 569.833,208.5 569.5,208.5C 511.833,208.5 454.167,208.5 396.5,208.5C 454.167,207.833 511.833,207.167 569.5,206.5 Z"/></g>
<g><path style="opacity:1" fill="#e41f24" d="M 122.5,208.5 C 179.5,208.5 236.5,208.5 293.5,208.5C 310.865,226.365 328.365,244.031 346,261.5C 347.683,259.649 349.516,257.983 351.5,256.5C 355.566,253.437 358.899,249.771 361.5,245.5C 363.5,242.833 365.833,240.5 368.5,238.5C 372.566,235.437 375.899,231.771 378.5,227.5C 379.833,225.5 381.5,223.833 383.5,222.5C 387.566,219.437 390.899,215.771 393.5,211.5C 394.167,210.167 395.167,209.167 396.5,208.5C 454.167,208.5 511.833,208.5 569.5,208.5C 569.168,271.669 569.501,334.669 570.5,397.5C 516.833,398.167 463.167,398.833 409.5,399.5C 401.5,407.833 393.5,416.167 385.5,424.5C 375.445,433.553 366.112,443.22 357.5,453.5C 353.378,455.787 350.045,458.954 347.5,463C 346.833,463.667 346.167,463.667 345.5,463C 324.15,441.421 302.483,420.255 280.5,399.5C 228.336,398.501 176.003,398.168 123.5,398.5C 123.829,384.323 123.496,370.323 122.5,356.5C 122.5,355.167 122.5,353.833 122.5,352.5C 122.5,304.5 122.5,256.5 122.5,208.5 Z"/></g>
<g><path style="opacity:1" fill="#e73d43" d="M 569.5,208.5 C 569.833,208.5 570.167,208.5 570.5,208.5C 571.167,208.5 571.5,208.833 571.5,209.5C 570.501,271.998 570.168,334.664 570.5,397.5C 569.501,334.669 569.168,271.669 569.5,208.5 Z"/></g>
<g><path style="opacity:1" fill="#f8d7d9" d="M 571.5,209.5 C 571.833,210.833 572.167,212.167 572.5,213.5C 571.167,273.167 571.167,332.833 572.5,392.5C 572.598,394.553 571.931,396.22 570.5,397.5C 570.168,334.664 570.501,271.998 571.5,209.5 Z"/></g>
<g><path style="opacity:1" fill="#ee6e70" d="M 393.5,211.5 C 390.899,215.771 387.566,219.437 383.5,222.5C 386.101,218.229 389.434,214.563 393.5,211.5 Z"/></g>
<g><path style="opacity:1" fill="#fefafa" d="M 572.5,213.5 C 593.537,265.826 596.037,319.159 580,373.5C 577.767,380.052 575.267,386.385 572.5,392.5C 571.167,332.833 571.167,273.167 572.5,213.5 Z"/></g>
<g><path style="opacity:1" fill="#fef8f8" d="M 120.5,209.5 C 121.499,256.997 121.832,304.664 121.5,352.5C 121.829,367.01 121.496,381.343 120.5,395.5C 111.268,374.912 105.601,353.245 103.5,330.5C 103.5,312.167 103.5,293.833 103.5,275.5C 106.037,252.687 111.703,230.687 120.5,209.5 Z"/></g>
<g><path style="opacity:1" fill="#f5a4a6" d="M 291.5,220.5 C 239.167,220.5 186.833,220.5 134.5,220.5C 134.5,276.167 134.5,331.833 134.5,387.5C 133.501,331.669 133.168,275.669 133.5,219.5C 186.336,219.168 239.003,219.501 291.5,220.5 Z"/></g>
<g><path style="opacity:1" fill="#fefafa" d="M 291.5,220.5 C 309.865,238.365 328.031,256.365 346,274.5C 357.718,261.739 369.884,249.406 382.5,237.5C 386.566,234.437 389.899,230.771 392.5,226.5C 393.96,224.537 395.627,222.704 397.5,221C 450.832,220.5 504.166,220.333 557.5,220.5C 557.5,275.833 557.5,331.167 557.5,386.5C 505.156,385.838 453.156,386.504 401.5,388.5C 397.472,392.859 393.472,397.193 389.5,401.5C 388.761,401.369 388.094,401.536 387.5,402C 380.904,408.09 374.904,414.59 369.5,421.5C 361.878,428.952 354.045,436.285 346,443.5C 326.672,425.101 307.505,406.601 288.5,388C 237.168,387.5 185.834,387.333 134.5,387.5C 134.5,331.833 134.5,276.167 134.5,220.5C 186.833,220.5 239.167,220.5 291.5,220.5 Z"/></g>
<g><path style="opacity:1" fill="#f6afb1" d="M 392.5,226.5 C 389.899,230.771 386.566,234.437 382.5,237.5C 385.101,233.229 388.434,229.563 392.5,226.5 Z"/></g>
<g><path style="opacity:1" fill="#ed6a6b" d="M 378.5,227.5 C 375.899,231.771 372.566,235.437 368.5,238.5C 371.101,234.229 374.434,230.563 378.5,227.5 Z"/></g>
<g><path style="opacity:1" fill="#ec6065" d="M 543.5,234.5 C 543.5,234.833 543.5,235.167 543.5,235.5C 496.761,235.172 450.095,235.505 403.5,236.5C 449.821,234.505 496.488,233.838 543.5,234.5 Z"/></g>
<g><path style="opacity:1" fill="#e95358" d="M 285.5,235.5 C 240.167,235.5 194.833,235.5 149.5,235.5C 149.5,281.167 149.5,326.833 149.5,372.5C 149.167,372.5 148.833,372.5 148.5,372.5C 148.5,326.5 148.5,280.5 148.5,234.5C 194.336,234.168 240.003,234.501 285.5,235.5 Z"/></g>
<g><path style="opacity:1" fill="#e31820" d="M 285.5,235.5 C 305.506,255.339 325.672,275.006 346,294.5C 358.494,282.196 370.994,269.863 383.5,257.5C 386.903,255.1 389.57,252.1 391.5,248.5C 395.167,244.167 399.167,240.167 403.5,236.5C 450.095,235.505 496.761,235.172 543.5,235.5C 543.5,281.167 543.5,326.833 543.5,372.5C 498.5,372.5 453.5,372.5 408.5,372.5C 408.821,367.305 408.487,362.305 407.5,357.5C 406.761,357.369 406.094,357.536 405.5,358C 385.95,377.884 366.117,397.384 346,416.5C 325.646,396.979 305.479,377.312 285.5,357.5C 284.791,356.596 283.791,356.263 282.5,356.5C 282.5,361.833 282.5,367.167 282.5,372.5C 238.167,372.5 193.833,372.5 149.5,372.5C 149.5,326.833 149.5,281.167 149.5,235.5C 194.833,235.5 240.167,235.5 285.5,235.5 Z"/></g>
<g><path style="opacity:1" fill="#ee7172" d="M 361.5,245.5 C 358.899,249.771 355.566,253.437 351.5,256.5C 354.101,252.229 357.434,248.563 361.5,245.5 Z"/></g>
<g><path style="opacity:1" fill="#ee7274" d="M 391.5,248.5 C 389.57,252.1 386.903,255.1 383.5,257.5C 385.43,253.9 388.097,250.9 391.5,248.5 Z"/></g>
<g><path style="opacity:1" fill="#ea5f64" d="M 120.5,209.5 C 120.5,208.833 120.833,208.5 121.5,208.5C 121.833,208.5 122.167,208.5 122.5,208.5C 122.5,256.5 122.5,304.5 122.5,352.5C 122.167,352.5 121.833,352.5 121.5,352.5C 121.832,304.664 121.499,256.997 120.5,209.5 Z"/></g>
<g><path style="opacity:1" fill="#fad2d3" d="M 103.5,275.5 C 103.5,293.833 103.5,312.167 103.5,330.5C 100.854,312.165 100.854,293.832 103.5,275.5 Z"/></g>
<g><path style="opacity:1" fill="#ef7576" d="M 93.5,293.5 C 93.9072,304.831 94.2406,316.164 94.5,327.5C 92.6939,316.192 92.3606,304.859 93.5,293.5 Z"/></g>
<g><path style="opacity:1" fill="#ee7b7f" d="M 285.5,357.5 C 283.554,362.396 282.887,367.729 283.5,373.5C 238.33,373.832 193.33,373.499 148.5,372.5C 148.833,372.5 149.167,372.5 149.5,372.5C 193.833,372.5 238.167,372.5 282.5,372.5C 282.5,367.167 282.5,361.833 282.5,356.5C 283.791,356.263 284.791,356.596 285.5,357.5 Z"/></g>
<g><path style="opacity:1" fill="#f08488" d="M 543.5,234.5 C 544.499,280.664 544.832,326.997 544.5,373.5C 498.833,373.5 453.167,373.5 407.5,373.5C 407.5,368.167 407.5,362.833 407.5,357.5C 408.487,362.305 408.821,367.305 408.5,372.5C 453.5,372.5 498.5,372.5 543.5,372.5C 543.5,326.833 543.5,281.167 543.5,235.5C 543.5,235.167 543.5,234.833 543.5,234.5 Z"/></g>
<g><path style="opacity:1" fill="#f9dadc" d="M 557.5,220.5 C 558.499,275.998 558.832,331.664 558.5,387.5C 506.095,387.171 453.762,387.505 401.5,388.5C 453.156,386.504 505.156,385.838 557.5,386.5C 557.5,331.167 557.5,275.833 557.5,220.5 Z"/></g>
<g><path style="opacity:1" fill="#f5aeb0" d="M 121.5,352.5 C 121.833,352.5 122.167,352.5 122.5,352.5C 122.5,353.833 122.5,355.167 122.5,356.5C 122.5,370.833 122.5,385.167 122.5,399.5C 122.5,399.833 122.5,400.167 122.5,400.5C 121.069,399.22 120.402,397.553 120.5,395.5C 121.496,381.343 121.829,367.01 121.5,352.5 Z"/></g>
<g><path style="opacity:1" fill="#e84147" d="M 122.5,356.5 C 123.496,370.323 123.829,384.323 123.5,398.5C 176.003,398.168 228.336,398.501 280.5,399.5C 227.833,399.5 175.167,399.5 122.5,399.5C 122.5,385.167 122.5,370.833 122.5,356.5 Z"/></g>
<g><path style="opacity:1" fill="#fefefe" d="M 122.5,399.5 C 175.167,399.5 227.833,399.5 280.5,399.5C 302.483,420.255 324.15,441.421 345.5,463C 346.167,463.667 346.833,463.667 347.5,463C 350.045,458.954 353.378,455.787 357.5,453.5C 367.555,444.447 376.888,434.78 385.5,424.5C 393.5,416.167 401.5,407.833 409.5,399.5C 463.168,399.333 516.834,399.5 570.5,400C 532.033,479.106 469.366,526.44 382.5,542C 274.748,553.449 191.748,513.949 133.5,423.5C 129.533,415.902 125.866,408.236 122.5,400.5C 122.5,400.167 122.5,399.833 122.5,399.5 Z"/></g>
<g><path style="opacity:1" fill="#ed6b6c" d="M 389.5,401.5 C 383.167,408.5 376.5,415.167 369.5,421.5C 374.904,414.59 380.904,408.09 387.5,402C 388.094,401.536 388.761,401.369 389.5,401.5 Z"/></g>
<g><path style="opacity:1" fill="#f7b6b8" d="M 385.5,424.5 C 376.888,434.78 367.555,444.447 357.5,453.5C 366.112,443.22 375.445,433.553 385.5,424.5 Z"/></g>
</svg>
